<?xml version="1.0" ?><svg viewBox="0 0 60 60" xmlns="http://www.w3.org/2000/svg"><defs><style>.a{fill:#f94867;}.b{fill:#363d47;}.c{fill:#4f5564;}.d{fill:#eee;}.e{fill:#fff;}.f{fill:none;stroke:#363d47;stroke-miterlimit:10;}.g{fill:#fdd303;}.h{fill:#f9ce00;}</style></defs><title/><path class="a" d="M60,30A29.98629,29.98629,0,0,1,31.5,59.96c-.49.03-1,.04-1.5.04s-1.01-.01-1.5-.04A30.01589,30.01589,0,0,1,0,30a30,30,0,0,1,60,0Z"/><path class="b" d="M29,17h2a2,2,0,0,1,2,2v1a0,0,0,0,1,0,0H27a0,0,0,0,1,0,0V19A2,2,0,0,1,29,17Z"/><path class="c" d="M28,19h4a4,4,0,0,1,4,4v1a0,0,0,0,1,0,0H24a0,0,0,0,1,0,0V23A4,4,0,0,1,28,19Z"/><path class="d" d="M45,37H15a15,15,0,1,1,30,0Z"/><path class="e" d="M45,37H27.04A14.98392,14.98392,0,0,1,37.15,23.81,15.01534,15.01534,0,0,1,45,37Z"/><line class="f" x1="30" x2="30" y2="17"/><path class="g" d="M53.28,48.91A29.92487,29.92487,0,0,1,31.5,59.96c-.49.03-1,.04-1.5.04s-1.01-.01-1.5-.04A29.92487,29.92487,0,0,1,6.72,48.91L15,37H45Z"/><path class="h" d="M43.06,57.01A29.69423,29.69423,0,0,1,31.5,59.96c-.49.03-1,.04-1.5.04s-1.01-.01-1.5-.04a29.69423,29.69423,0,0,1-11.56-2.95L23.23,37H36.77Z"/></svg>